Coordinates
version=1
nRows=12
nColumns=24
inDegrees=yes

Units are S.I. units (second, meters, Newtons, ...)
Angles are in degrees.

endheader
time	pelvis_tilt	pelvis_list	pelvis_rotation	pelvis_tx	pelvis_ty	pelvis_tz	hip_flexion_r	hip_adduction_r	hip_rotation_r	knee_angle_r	ankle_angle_r	subtalar_angle_r	mtp_angle_r	hip_flexion_l	hip_adduction_l	hip_rotation_l	knee_angle_l	ankle_angle_l	subtalar_angle_l	mtp_angle_l	lumbar_extension	lumbar_bending	lumbar_rotation
      1.78300000	      4.23724395	      2.94420920	     -1.16323345	      1.42617203	      1.03881631	      0.24230653	     11.30119660	     -5.91339918	     -7.17588047	    -62.50613022	      0.94725376	    -10.02624982	     -0.10013043	      4.47125067	      8.66661668	      6.49943635	    -11.93081490	      5.38400051	    -17.01792811	     -1.71248332	     -4.15386118	     -7.34654326	      3.54672070
      1.78716667	      4.27036380	      2.77520874	     -0.96445639	      1.43027019	      1.03959613	      0.24171872	     11.74668943	     -5.74417531	     -7.31057804	    -61.93260919	      1.45421848	    -10.13011598	     -0.15231840	      4.03345783	      8.50314534	      6.68008603	    -11.66060385	      5.39081605	    -16.96969926	     -1.73463440	     -4.32554726	     -7.10063329	      3.31944255
      1.79133333	      4.32445109	      2.62361723	     -0.77036022	      1.43439657	      1.04036277	      0.24113233	     12.15338099	     -5.60022011	     -7.45450360	    -61.31618366	      1.94196730	    -10.26631675	     -0.23145594	      3.56728487	      8.35596831	      6.86042101	    -11.38096930	      5.38953592	    -16.93427131	     -1.76779107	     -4.50929200	     -6.86836312	      2.99940734
      1.79550000	      4.35627093	      2.47288497	     -0.57432637	      1.43849879	      1.04106125	      0.24054185	     12.57289348	     -5.45823896	     -7.60558237	    -60.65756892	      2.37919808	    -10.42925924	     -0.31098528	      3.13725220	      8.20682384	      7.03117544	    -11.11746137	      5.40290975	    -16.87655458	     -1.79762186	     -4.67398779	     -6.63689222	      2.74783294
      1.79966667	      4.35976192	      2.31146626	     -0.37301884	      1.44260163	      1.04168779	      0.23994929	     13.00490875	     -5.30594387	     -7.77120954	    -59.94842199	      2.79102363	    -10.60983896	     -0.35577859	      2.75508617	      8.04196314	      7.17966182	    -10.88593258	      5.42465027	    -16.80345724	     -1.81262537	     -4.80128853	     -6.39320995	      2.58620256
      1.80383333	      4.44387993	      2.17703944	     -0.18588161	      1.44671994	      1.04240122	      0.23937889	     13.33319518	     -5.18657743	     -7.94001592	    -59.19135291	      3.14402273	    -10.85619739	     -0.44934921	      2.26375051	      7.90196988	      7.31942249	    -10.60528181	      5.44487891	    -16.72410277	     -1.84011824	     -5.02231860	     -6.17643772	      2.26288207
      1.80800000	      4.45222081	      2.03097453	      0.01488887	      1.45082015	      1.04296102	      0.23879242	     13.73075042	     -5.05531973	     -8.12238539	    -58.39686089	      3.48875311	    -11.09009848	     -0.50443759	      1.88257810	      7.74876927	      7.46421084	    -10.38209573	      5.47744927	    -16.64493312	     -1.85427305	     -5.15443573	     -5.94683014	      2.09306945
      1.81216667	      4.50381805	      1.90399184	      0.19965568	      1.45494739	      1.04354107	      0.23823159	     14.06794584	     -4.94493514	     -8.30342589	    -57.55768180	      3.76914912	    -11.40714805	     -0.61558622	      1.44735137	      7.61252089	      7.59445737	    -10.14323722	      5.52722654	    -16.54972668	     -1.87708081	     -5.31971926	     -5.73561719	      1.78313705
      1.81633333	      4.51563731	      1.77547426	      0.39094577	      1.45908450	      1.04401661	      0.23767158	     14.43120887	     -4.83601856	     -8.49861983	    -56.68858136	      4.04684619	    -11.68956754	     -0.69123170	      1.07374217	      7.47309981	      7.71304274	     -9.93839546	      5.57236945	    -16.46749630	     -1.89105540	     -5.44593834	     -5.52658298	      1.62586882
      1.82050000	      4.54410049	      1.65412120	      0.59461677	      1.46325225	      1.04449850	      0.23710844	     14.75239419	     -4.73434940	     -8.70887310	    -55.76636135	      4.26718346	    -12.03628996	     -0.78580018	      0.67938311	      7.33758868	      7.84742107	     -9.72910282	      5.63026910	    -16.36049303	     -1.90409319	     -5.57991070	     -5.33023826	      1.38870304
      1.82466667	      4.59659566	      1.56773230	      0.76923039	      1.46738545	      1.04494546	      0.23660066	     15.04902158	     -4.66595337	     -8.89566351	    -54.82979399	      4.44257549	    -12.43232088	     -0.93969016	      0.25917114	      7.23724936	      7.95678305	     -9.51247688	      5.69045151	    -16.25611862	     -1.92583221	     -5.74299880	     -5.16657818	      1.09778745
      1.82883333	      4.59679746	      1.45516625	      0.96649995	      1.47151098	      1.04529639	      0.23606326	     15.38305241	     -4.57426328	     -9.11308478	    -53.84587151	      4.60466544	    -12.78134450	     -1.05787892	     -0.07317253	      7.11050385	      8.08320737	     -9.36178573	      5.77322881	    -16.16853702	     -1.93847944	     -5.85540142	     -4.97502302	      0.92749668
